<svg width="172" height="172" viewBox="0 0 172 172" fill="none" xmlns="http://www.w3.org/2000/svg">
<mask id="mask0_1_4" style="mask-type:luminance" maskUnits="userSpaceOnUse" x="0" y="0" width="172" height="172">
<path d="M172 0H0V172H172V0Z" fill="white"/>
</mask>
<g mask="url(#mask0_1_4)">
<path d="M0 85.8C0 38.4 38.4 0 85.8 0C133.2 0 171.6 38.4 171.6 85.8C171.6 133.2 133.2 171.6 85.8 171.6C38.4 171.5 0 133.1 0 85.8Z" fill="#5865F2"/>
<path d="M124.4 50.9C117.1 47.6 109.5 45.2 101.6 43.9C100.6 45.7 99.5 48 98.7 49.9C90.3 48.6 81.8 48.6 73.4 49.9C72.5 47.8 71.5 45.8 70.4 43.9C62.5 45.2 54.8 47.6 47.6 51C33.2 72.5 29.3 93.4 31.2 114.1C39.7 120.4 49.1 125.2 59.2 128.2C61.5 125.1 63.5 121.9 65.2 118.5C61.9 117.3 58.8 115.8 55.8 114C56.6 113.4 57.3 112.8 58.1 112.2C75.8 120.6 96.4 120.6 114.1 112.2C114.9 112.8 115.6 113.4 116.4 114C113.4 115.8 110.2 117.3 106.9 118.5C108.6 121.9 110.6 125.1 112.9 128.2C123 125.1 132.5 120.4 140.9 114.1C143.1 90.1 136.9 69.3 124.4 50.9ZM67.6 101.3C62.1 101.3 57.7 96.3 57.7 90.2C57.7 84.1 62.1 79 67.6 79C73.2 79 77.6 84 77.6 90.2C77.5 96.3 73.2 101.3 67.6 101.3ZM104.4 101.3C98.9 101.3 94.5 96.3 94.5 90.2C94.5 84.1 98.9 79 104.4 79C110 79 114.4 84 114.3 90.2C114.2 96.4 109.9 101.3 104.4 101.3Z" fill="white"/>
</g>
</svg>
