<svg width="140" height="56" viewBox="0 0 140 56" fill="none" xmlns="http://www.w3.org/2000/svg">
<path d="M22.47 14.865C22.7733 14.865 22.925 14.97 22.925 15.18C22.925 15.7167 22.7383 16.23 22.365 16.72C21.9917 17.1867 21.56 17.4783 21.07 17.595C13.8367 19.3917 10.22 20.71 10.22 21.55C10.22 21.8067 10.8267 22.1217 12.04 22.495C13.2533 22.8683 14.455 23.265 15.645 23.685C16.8583 24.0817 17.465 24.455 17.465 24.805C17.465 25.225 17.3017 25.6683 16.975 26.135C16.6483 26.6017 16.2983 26.835 15.925 26.835L15.54 26.695C11.9233 25.2483 9.05333 24.3033 6.93 23.86C6.11333 23.6733 5.39 23.5217 4.76 23.405C4.15333 23.265 3.745 23.16 3.535 23.09C3.34833 22.9967 3.255 22.8567 3.255 22.67C3.255 21.8767 3.89667 21.1417 5.18 20.465C6.51 19.7883 9.43833 18.6917 13.965 17.175C18.515 15.635 21.35 14.865 22.47 14.865ZM30.8999 32.015C30.8999 33.345 30.2699 35.2 29.0099 37.58C27.7732 39.96 26.2799 42.2817 24.5299 44.545C22.8032 46.8083 20.9249 48.7683 18.8949 50.425C16.8649 52.105 15.1499 52.945 13.7499 52.945C12.7699 52.945 12.2799 52.1283 12.2799 50.495C12.2799 48.8617 12.7582 47.0417 13.7149 45.035C14.6715 43.0517 15.8265 41.22 17.1799 39.54C18.5099 37.8833 19.9332 36.4717 21.4499 35.305C22.9665 34.1383 24.2382 33.555 25.2649 33.555C25.6149 33.555 25.7899 33.6367 25.7899 33.8C25.7899 33.9633 25.6499 34.115 25.3699 34.255C24.4832 34.7217 23.3515 35.7133 21.9749 37.23C20.6215 38.77 19.3965 40.52 18.2999 42.48C17.1799 44.4633 16.6199 46.1317 16.6199 47.485C16.6199 48.0683 16.8299 48.36 17.2499 48.36C18.1132 48.36 19.3849 47.4617 21.0649 45.665C22.7215 43.8683 24.2265 41.745 25.5799 39.295C26.9332 36.8683 27.6099 34.885 27.6099 33.345C27.6099 32.2717 27.3299 31.4317 26.7699 30.825C26.2332 30.195 25.4399 29.88 24.3899 29.88C23.6199 29.88 22.9782 29.95 22.4649 30.09C21.9515 30.2067 21.6365 30.265 21.5199 30.265C21.4265 30.265 21.3799 30.1717 21.3799 29.985C21.3799 29.775 21.3799 29.635 21.3799 29.565C21.4032 29.4717 21.4499 29.32 21.5199 29.11C21.6132 28.9 21.7065 28.7017 21.7999 28.515C21.9165 28.3283 22.0799 28.1417 22.2899 27.955C22.5232 27.745 22.7799 27.5933 23.0599 27.5C23.3399 27.4067 23.7015 27.2783 24.1449 27.115C24.5882 26.9517 25.3699 26.625 26.4899 26.135C27.6332 25.6217 28.6365 25.12 29.4999 24.63C30.3865 24.1167 31.1799 23.5217 31.8799 22.845C32.6032 22.145 32.9649 21.5033 32.9649 20.92C32.9649 20.1033 32.0549 19.695 30.2349 19.695C29.4415 19.695 28.6832 19.8 27.9599 20.01L26.8399 20.29C26.6765 20.29 26.5949 20.1733 26.5949 19.94C26.5949 19.3567 27.2365 18.7733 28.5199 18.19C29.8032 17.6067 31.2965 17.315 32.9999 17.315C33.6299 17.315 34.3415 17.42 35.1349 17.63C36.6515 18.0033 37.4099 18.6683 37.4099 19.625C37.4099 20.4183 36.9199 21.2817 35.9399 22.215C34.9599 23.1483 33.8749 23.9533 32.6849 24.63C29.5349 26.38 27.9599 27.4417 27.9599 27.815C27.9599 28.025 28.1115 28.235 28.4149 28.445C28.7182 28.6317 29.0565 28.83 29.4299 29.04C29.8032 29.2267 30.1415 29.5767 30.4449 30.09C30.7482 30.6033 30.8999 31.245 30.8999 32.015ZM41.0989 32.995C39.7456 32.995 38.7539 32.5867 38.1239 31.77C37.4939 30.9767 37.1789 29.9967 37.1789 28.83C37.1789 27.64 37.4356 26.4033 37.9489 25.12C38.4622 23.8133 39.1622 22.5533 40.0489 21.34C40.9589 20.1267 42.1372 19.1117 43.5839 18.295C45.0539 17.455 46.6289 17.035 48.3089 17.035C49.0789 17.035 49.6622 17.28 50.0589 17.77C50.4556 18.2367 50.6539 18.7967 50.6539 19.45C50.6539 20.8033 50.1756 22.0633 49.2189 23.23C48.2622 24.3967 47.2006 25.2833 46.0339 25.89C44.8672 26.4967 43.8289 26.8467 42.9189 26.94C42.0322 27.01 41.4372 27.1733 41.1339 27.43C40.8306 27.6867 40.6789 28.2 40.6789 28.97C40.6789 29.74 40.8539 30.3233 41.2039 30.72C41.5539 31.1167 41.9039 31.385 42.2539 31.525C42.6039 31.665 42.7789 31.805 42.7789 31.945C42.7789 32.2717 42.6039 32.5283 42.2539 32.715C41.9039 32.9017 41.5189 32.995 41.0989 32.995ZM47.2589 20.325C47.2589 19.6017 46.9322 19.24 46.2789 19.24C45.3456 19.24 44.3072 19.8933 43.1639 21.2C42.0439 22.5067 41.4839 23.685 41.4839 24.735C41.4839 24.9917 41.6822 25.12 42.0789 25.12C43.0356 25.12 44.1322 24.63 45.3689 23.65C46.6289 22.67 47.2589 21.5617 47.2589 20.325ZM52.3099 32.54C51.8433 32.54 51.5049 32.365 51.2949 32.015C51.1083 31.6883 51.0149 31.3383 51.0149 30.965C51.0149 29.5417 51.3183 27.8617 51.9249 25.925C52.5316 23.9883 53.1383 22.4017 53.7449 21.165L54.6549 19.31C54.5616 19.31 54.5966 19.2283 54.7599 19.065C54.9466 18.8783 55.1216 18.7267 55.2849 18.61C55.7516 18.3533 56.2533 18.225 56.7899 18.225C57.3499 18.225 57.6299 18.3183 57.6299 18.505C57.6299 18.5517 57.5249 18.7733 57.3149 19.17C57.1049 19.5667 56.6849 20.7333 56.0549 22.67C55.4483 24.6067 55.1449 26.0533 55.1449 27.01C55.1449 27.9667 55.3783 28.445 55.8449 28.445C56.8949 28.445 58.1433 27.4417 59.5899 25.435C61.0599 23.4283 61.7949 21.8417 61.7949 20.675C61.1883 20.4417 60.8849 20.045 60.8849 19.485C60.8849 18.9017 61.1066 18.3183 61.5499 17.735C62.0166 17.1283 62.3783 16.825 62.6349 16.825C62.6583 16.825 62.8333 16.8833 63.1599 17C63.5099 17.0933 63.9766 17.14 64.5599 17.14C65.1666 17.14 65.7033 17.07 66.1699 16.93C66.6366 16.79 66.9866 16.6617 67.2199 16.545C67.4766 16.405 67.6399 16.335 67.7099 16.335C67.8966 16.335 67.9899 16.4517 67.9899 16.685C67.9899 16.8017 67.9083 17.07 67.7449 17.49C67.5816 17.91 67.4183 18.26 67.2549 18.54C66.7883 19.2867 66.1583 19.8117 65.3649 20.115C65.1783 20.2083 65.0849 20.3133 65.0849 20.43C65.0849 21.0133 64.9099 21.62 64.5599 22.25C63.5099 24.28 61.5849 26.5083 58.7849 28.935C56.0083 31.3383 53.8499 32.54 52.3099 32.54ZM73.3174 29.775L73.3874 29.04C73.3874 28.8533 73.3174 28.76 73.1774 28.76C72.9674 28.76 72.5357 29.0633 71.8824 29.67C71.2524 30.2767 70.4474 30.8833 69.4674 31.49C68.5107 32.12 67.5424 32.435 66.5624 32.435C65.6057 32.435 65.1274 31.7233 65.1274 30.3C65.1274 28.5267 65.8974 26.485 67.4374 24.175C68.2307 23.0083 69.1407 21.935 70.1674 20.955C71.2174 19.9517 72.489 19.135 73.9824 18.505C75.4757 17.8517 77.039 17.525 78.6724 17.525C79.5357 17.525 80.2707 17.7583 80.8774 18.225C81.484 18.6683 81.7874 19.2283 81.7874 19.905C81.7874 20.5583 81.589 20.885 81.1924 20.885C80.9824 20.885 80.7024 20.7567 80.3524 20.5C79.699 20.0567 78.6724 19.835 77.2724 19.835C75.429 19.835 73.679 20.675 72.0224 22.355C70.389 24.0117 69.5724 25.6567 69.5724 27.29C69.5724 27.5 69.6307 27.6983 69.7474 27.885C69.8874 28.0717 70.074 28.165 70.3074 28.165C71.0074 28.165 71.9057 27.6867 73.0024 26.73C74.099 25.75 75.1724 24.35 76.2224 22.53C76.2924 22.32 76.549 22.1217 76.9924 21.935C77.4357 21.7483 77.9607 21.655 78.5674 21.655C79.4307 21.725 79.8624 21.9117 79.8624 22.215C79.8624 22.2383 79.769 22.39 79.5824 22.67C79.419 22.9267 79.1157 23.405 78.6724 24.105C78.229 24.805 77.599 25.96 76.7824 27.57C75.989 29.1567 75.5224 30.4167 75.3824 31.35C75.359 31.63 75.2424 31.77 75.0324 31.77C73.889 31.77 73.3174 31.105 73.3174 29.775ZM90.5561 32.505C89.9027 32.505 89.5761 32.3533 89.5761 32.05L89.6461 31.84C91.0461 29.74 92.2477 27.7217 93.2511 25.785C94.2544 23.825 94.7561 22.5533 94.7561 21.97C94.7561 21.7833 94.7094 21.6433 94.6161 21.55C94.5227 21.4333 94.3827 21.3633 94.1961 21.34C93.2861 21.34 92.0611 21.9233 90.5211 23.09C89.0044 24.2567 87.6627 25.4583 86.4961 26.695C85.3527 27.9317 84.5011 28.9467 83.9411 29.74C83.3811 30.51 82.5411 30.895 81.4211 30.895C80.8144 30.895 80.5111 30.7433 80.5111 30.44C80.5111 29.8333 81.6544 27.6983 83.9411 24.035C86.2277 20.3483 87.7444 18.365 88.4911 18.085C88.8877 17.8517 89.3894 17.735 89.9961 17.735C90.6261 17.735 90.9411 17.8633 90.9411 18.12C90.9411 18.3533 90.6611 18.8783 90.1011 19.695C89.5411 20.5117 89.2611 21.0367 89.2611 21.27C89.3077 21.4567 89.4011 21.55 89.5411 21.55C89.7044 21.55 89.8444 21.5033 89.9611 21.41C93.4144 18.7267 96.1677 17.385 98.2211 17.385C99.0844 17.385 99.5161 17.8867 99.5161 18.89C99.5161 19.5433 99.0261 20.955 98.0461 23.125C97.0894 25.295 95.8644 27.4067 94.3711 29.46C92.9011 31.49 91.6294 32.505 90.5561 32.505ZM98.6641 32.82C97.9874 32.82 97.6491 32.68 97.6491 32.4C97.6491 32.26 97.7308 32.0967 97.8941 31.91C98.1974 31.6767 101.931 27.8967 109.094 20.57C116.281 13.22 120.854 8.495 122.814 6.395C123.397 5.78834 124.377 5.485 125.754 5.485C126.454 5.485 126.804 5.625 126.804 5.905C126.804 6.02167 126.722 6.17334 126.559 6.36C125.836 7.10667 122.301 10.7 115.954 17.14C109.607 23.5567 104.847 28.48 101.674 31.91C101.091 32.5167 100.087 32.82 98.6641 32.82ZM117.145 26.45C116.842 26.45 116.69 26.3333 116.69 26.1C116.69 25.6333 116.877 25.155 117.25 24.665C117.647 24.175 118.043 23.8833 118.44 23.79C118.86 23.6733 119.432 23.5333 120.155 23.37C120.878 23.1833 121.45 23.0433 121.87 22.95C122.29 22.8333 122.838 22.6933 123.515 22.53C124.192 22.3433 124.728 22.1917 125.125 22.075C125.545 21.9583 126.012 21.8183 126.525 21.655C127.062 21.4917 127.482 21.3517 127.785 21.235C128.112 21.095 128.427 20.9433 128.73 20.78C129.313 20.5 129.605 20.2317 129.605 19.975C129.605 19.625 128.975 19.2517 127.715 18.855C126.478 18.435 125.23 18.0267 123.97 17.63C122.733 17.2333 122.115 16.8717 122.115 16.545C122.115 16.125 122.278 15.6817 122.605 15.215C122.932 14.7483 123.282 14.515 123.655 14.515L124.075 14.655C127.272 15.9617 129.71 16.8483 131.39 17.315C133.07 17.7583 134.213 18.0733 134.82 18.26C135.45 18.4233 135.858 18.5633 136.045 18.68C136.255 18.7967 136.36 18.9717 136.36 19.205C136.36 19.4383 136.208 19.765 135.905 20.185C135.602 20.605 134.96 21.06 133.98 21.55C133.023 22.04 130.258 22.985 125.685 24.385C121.135 25.7617 118.288 26.45 117.145 26.45Z" fill="#DEDEDE"/>
</svg>
